<svg version="1.1" viewBox="0.0 0.0 960.0 540.0" fill="none" stroke="none" stroke-linecap="square" stroke-miterlimit="10" xmlns:xlink="http://www.w3.org/1999/xlink" xmlns="http://www.w3.org/2000/svg"><clipPath id="g11b215ffff3_0_40.0"><path d="m0 0l960.0 0l0 540.0l-960.0 0l0 -540.0z" clip-rule="nonzero"/></clipPath><g clip-path="url(#g11b215ffff3_0_40.0)"><path fill="#ffffff" d="m0 0l960.0 0l0 540.0l-960.0 0z" fill-rule="evenodd"/><path fill="#000000" fill-opacity="0.0" d="m26.104986 58.480316l894.5512 0l0 404.97638l-894.5512 0z" fill-rule="evenodd"/><path fill="#000000" d="m374.3851 236.85672q1.484375 -6.65625 2.984375 -11.234375q1.515625 -4.59375 3.25 -9.5625q2.3125 -6.046875 2.3125 -10.859375q0 -0.53125 0 -1.0q0 -0.484375 -0.078125 -0.859375q-0.609375 -4.5 -2.296875 -10.03125q-1.671875 -5.53125 -3.671875 -10.90625q-1.921875 -5.09375 -4.09375 -8.328125q-2.15625 -3.234375 -4.59375 -3.234375q-1.53125 0 -3.828125 1.625q-2.28125 1.609375 -5.59375 5.9375q-0.859375 0.859375 -1.890625 0.859375q-2.234375 0 -2.53125 -1.96875q-0.28125 -1.96875 0.0625 -2.921875q2.5 -5.015625 5.34375 -8.71875q2.84375 -3.703125 7.015625 -5.703125q4.1875 -2.015625 10.28125 -1.65625q6.4375 0.265625 9.40625 4.71875q2.96875 4.4375 5.078125 11.375q1.625 5.578125 3.328125 11.953125q1.703125 6.359375 1.9375 7.25q1.25 -1.71875 5.828125 -8.328125q4.59375 -6.625 9.140625 -13.03125q4.546875 -6.421875 8.203125 -11.265625q1.734375 -2.203125 4.703125 -2.640625q2.96875 -0.453125 5.796875 -0.453125q1.75 0 3.34375 0.046875q1.59375 0.046875 9.71875 0.046875q-10.28125 7.265625 -15.625 12.1875q-5.328125 4.921875 -10.5625 11.015625q-4.609375 5.328125 -9.4375 12.65625q-4.8125 7.328125 -8.6875 15.734375q-3.859375 8.390625 -5.71875 17.03125q-0.40625 1.734375 -0.609375 3.15625q-0.1875 1.421875 -0.1875 2.4375q0 1.125 2.0 4.671875l-20.328125 0zm69.32272 0.640625q-4.703125 0 -6.34375 -3.421875q-1.640625 -3.421875 -1.640625 -7.65625q0 -3.625 0.6875 -7.171875q0.34375 -1.53125 0.71875 -3.125q0.390625 -1.59375 3.0625 -2.703125q0.09375 4.4375 -1.953125 7.625q-2.03125 3.1875 -4.140625 5.625q-3.578125 4.375 -7.78125 7.4375q-4.1875 3.0625 -8.640625 3.0625q-3.9375 0 -6.65625 -2.84375q-2.703125 -2.84375 -2.703125 -9.1875q0 -5.890625 2.015625 -12.0625q2.03125 -6.1875 5.71875 -11.5625q3.6875 -5.390625 8.890625 -8.78125q5.203125 -3.40625 11.515625 -3.40625q2.09375 0 4.578125 0.640625q2.5 0.625 4.796875 2.453125q2.296875 1.8125 1.0 5.375q-1.65625 -1.453125 -1.3125 -1.6875q0.34375 -0.234375 1.09375 0.796875q0.53125 -3.21875 2.890625 -5.171875q2.359375 -1.96875 5.515625 -1.96875q1.21875 0 3.28125 0.109375q2.078125 0.09375 10.3125 -0.859375q-6.09375 5.03125 -6.890625 6.140625q-0.78125 1.109375 -1.5 2.390625q-0.71875 1.28125 -1.125 2.0q-2.828125 5.4375 -5.125 10.765625q-2.296875 5.3125 -3.53125 10.203125q-0.296875 0.9375 -0.390625 1.6875q-0.078125 0.734375 -0.078125 1.453125q-0.40625 0.953125 -0.40625 0.546875q0.921875 0 2.859375 -1.625q3.46875 -2.765625 6.171875 -7.046875q2.703125 -4.296875 4.8125 -8.390625q1.078125 -1.921875 2.6875 -1.921875q2.859375 0 2.859375 4.03125q0 1.125 -0.34375 2.484375q-0.328125 1.34375 -1.015625 2.5625q-1.515625 2.625 -3.96875 6.4375q-2.453125 3.8125 -5.5625 7.546875q-3.109375 3.71875 -6.765625 6.46875q-3.640625 2.75 -7.59375 2.75zm-20.5 -13.59375q-0.078125 0.265625 0.234375 -0.015625q1.3125 0 3.25 -1.421875q1.953125 -1.421875 4.15625 -3.984375q2.21875 -2.578125 3.953125 -5.203125q4.671875 -7.421875 6.90625 -11.140625q2.234375 -3.734375 2.9375 -3.3125q-0.90625 -0.203125 -1.625 -0.65625q-0.703125 -0.453125 -1.875 -0.453125q-1.828125 0 -4.046875 1.09375q-2.203125 1.078125 -3.765625 2.640625q-2.5625 2.546875 -4.953125 6.71875q-2.390625 4.15625 -3.84375 8.15625q-1.4375 3.984375 -1.4375 6.46875q0 1.0625 0.109375 1.109375zm51.542175 15.09375q-3.953125 0 -7.578125 -1.09375q-3.625 -1.078125 -6.171875 -3.625q-2.546875 -2.5625 -2.546875 -6.578125q0 -3.0 1.9375 -6.015625q1.9375 -3.03125 5.828125 -3.03125q1.75 0 3.3125 0.890625q1.578125 0.875 2.671875 3.8125q-1.203125 0.796875 -1.421875 1.34375q-0.203125 0.53125 -0.234375 0.59375q-0.734375 1.453125 -0.734375 2.515625q0 1.203125 0.953125 2.0q0.953125 0.796875 2.78125 0.796875q2.65625 -0.078125 4.59375 -1.859375q1.953125 -1.796875 1.953125 -4.140625q0 -1.40625 -0.625 -2.65625q-1.203125 -2.484375 -3.375 -4.4375q-2.15625 -1.96875 -4.4375 -4.3125q-2.28125 -2.34375 -3.40625 -5.84375q-0.515625 -1.71875 -0.515625 -4.078125q0 -2.328125 0.625 -4.640625q0.625 -2.328125 1.9375 -4.046875q1.78125 -2.390625 5.1875 -4.34375q4.25 -2.296875 9.8125 -2.296875q3.671875 0 6.578125 0.953125q2.421875 0.8125 4.359375 2.765625q1.953125 1.9375 1.953125 5.21875q0 3.34375 -2.125 6.421875q-2.109375 3.0625 -6.1875 3.78125q-2.734375 0.28125 -5.1875 -1.203125q-2.453125 -1.484375 -1.546875 -7.015625q3.546875 -0.78125 4.296875 -1.78125q0.234375 -0.34375 0.234375 -0.640625q0 -0.421875 -0.578125 -0.6875q-0.578125 -0.28125 -1.359375 -0.28125q-1.328125 0 -2.421875 0.28125q-1.09375 0.28125 -1.84375 0.828125q-1.515625 1.3125 -1.515625 2.953125q0 0.125 0.125 0.546875q0.125 0.421875 0.21875 0.859375q0.3125 0.828125 1.171875 1.78125q0.875 0.953125 1.765625 1.65625q2.671875 1.921875 5.71875 4.359375q3.0625 2.421875 4.65625 6.09375q1.265625 2.65625 1.265625 5.5q0 3.828125 -1.875 6.90625q-1.859375 3.0625 -5.5625 3.015625q2.1875 -3.328125 5.328125 -6.875q3.140625 -3.546875 5.5 -7.140625q1.59375 -2.421875 2.890625 -4.5625q1.296875 -2.140625 2.671875 -4.78125q1.09375 -1.890625 2.703125 -1.890625q2.859375 0 2.859375 4.03125q0 1.015625 -0.328125 2.34375q-0.328125 1.3125 -1.0 2.65625q-1.984375 3.296875 -3.734375 6.078125q-1.734375 2.765625 -4.25 6.046875q-5.21875 6.921875 -11.234375 9.875q-6.015625 2.953125 -14.09375 2.953125zm55.5661 -1.5q-4.875 0 -6.703125 -2.984375q-1.8125 -2.984375 -1.8125 -6.484375q0 -3.828125 1.4375 -8.96875q1.453125 -5.15625 3.328125 -10.265625q1.875 -5.125 3.390625 -9.125q0.265625 -0.59375 0.265625 -1.1875q0 -0.03125 0 -0.015625q0.015625 0 -0.4375 0q-1.1875 0 -2.84375 0.828125q-2.875 1.46875 -5.625 4.921875q-2.75 3.4375 -4.4375 7.21875q-2.0 4.5 -3.578125 9.046875q-1.578125 4.53125 -2.546875 7.40625q-0.609375 1.765625 -1.140625 3.65625q-0.515625 1.890625 -1.53125 5.3125l-14.859375 0q0 0 1.0625 -4.109375q1.0625 -4.125 2.1875 -6.921875q1.8125 -4.6875 3.671875 -9.375q1.875 -4.6875 3.25 -8.328125q0.40625 -1.0 1.28125 -3.859375q0.890625 -2.859375 1.640625 -5.890625q0.765625 -3.03125 0.765625 -4.796875q0.609375 -0.640625 -2.5 -3.8125q5.3125 0 6.53125 -0.046875q1.234375 -0.0625 2.34375 -0.0625q1.578125 0 3.375 0.140625q1.8125 0.140625 2.6875 1.046875q2.03125 1.515625 2.03125 4.4375q0 1.6875 -0.53125 3.09375q-0.53125 1.40625 -2.390625 0.796875q-0.4375 -2.25 1.25 -3.59375q1.6875 -1.359375 5.125 -3.46875q2.1875 -1.34375 5.359375 -2.15625q3.1875 -0.828125 5.8125 -0.828125q8.296875 0 8.296875 7.859375q0 1.109375 -0.1875 2.484375q-0.171875 1.375 -0.78125 2.953125q-0.53125 1.703125 -1.71875 4.71875q-1.1875 3.0 -2.40625 6.3125q-1.203125 3.3125 -2.0 6.125q-0.796875 2.796875 -0.796875 4.296875q-0.296875 0.625 -0.296875 0.328125q0.90625 0 2.84375 -1.609375q2.265625 -1.875 3.953125 -4.046875q2.140625 -2.65625 3.953125 -5.703125q1.8125 -3.0625 3.21875 -5.765625q1.234375 -1.953125 2.671875 -1.953125q2.859375 0 2.859375 4.03125q0 1.109375 -0.328125 2.515625q-0.328125 1.390625 -1.03125 2.625q-1.53125 2.640625 -3.59375 5.78125q-2.0625 3.140625 -4.234375 6.0625q-1.578125 2.171875 -4.1875 4.78125q-2.59375 2.59375 -5.75 4.59375q-3.140625 1.984375 -6.34375 1.984375zm50.658386 0q-4.703125 0 -6.34375 -3.421875q-1.640625 -3.421875 -1.640625 -7.65625q0 -3.625 0.6875 -7.171875q0.34375 -1.53125 0.71875 -3.125q0.390625 -1.59375 3.0625 -2.703125q0.09375 4.4375 -1.953125 7.625q-2.03125 3.1875 -4.140625 5.625q-3.578125 4.375 -7.78125 7.4375q-4.1875 3.0625 -8.640625 3.0625q-3.9375 0 -6.65625 -2.84375q-2.703125 -2.84375 -2.703125 -9.1875q0 -5.890625 2.015625 -12.0625q2.03125 -6.1875 5.71875 -11.5625q3.6875 -5.390625 8.890625 -8.78125q5.203125 -3.40625 11.515625 -3.40625q2.09375 0 4.578125 0.640625q2.5 0.625 4.796875 2.453125q2.296875 1.8125 1.0 5.375q-1.65625 -1.453125 -1.3125 -1.6875q0.34375 -0.234375 1.09375 0.796875q0.53125 -3.21875 2.890625 -5.171875q2.359375 -1.96875 5.515625 -1.96875q1.21875 0 3.28125 0.109375q2.078125 0.09375 10.3125 -0.859375q-6.09375 5.03125 -6.890625 6.140625q-0.78125 1.109375 -1.5 2.390625q-0.71875 1.28125 -1.125 2.0q-2.828125 5.4375 -5.125 10.765625q-2.296875 5.3125 -3.53125 10.203125q-0.296875 0.9375 -0.390625 1.6875q-0.078125 0.734375 -0.078125 1.453125q-0.40625 0.953125 -0.40625 0.546875q0.921875 0 2.859375 -1.625q3.46875 -2.765625 6.171875 -7.046875q2.703125 -4.296875 4.8125 -8.390625q1.078125 -1.921875 2.6875 -1.921875q2.859375 0 2.859375 4.03125q0 1.125 -0.34375 2.484375q-0.328125 1.34375 -1.015625 2.5625q-1.515625 2.625 -3.96875 6.4375q-2.453125 3.8125 -5.5625 7.546875q-3.109375 3.71875 -6.765625 6.46875q-3.640625 2.75 -7.59375 2.75zm-20.5 -13.59375q-0.078125 0.265625 0.234375 -0.015625q1.3125 0 3.25 -1.421875q1.953125 -1.421875 4.15625 -3.984375q2.21875 -2.578125 3.953125 -5.203125q4.671875 -7.421875 6.90625 -11.140625q2.234375 -3.734375 2.9375 -3.3125q-0.90625 -0.203125 -1.625 -0.65625q-0.703125 -0.453125 -1.875 -0.453125q-1.828125 0 -4.046875 1.09375q-2.203125 1.078125 -3.765625 2.640625q-2.5625 2.546875 -4.953125 6.71875q-2.390625 4.15625 -3.84375 8.15625q-1.4375 3.984375 -1.4375 6.46875q0 1.0625 0.109375 1.109375z" fill-rule="nonzero"/><path fill="#000000" d="m437.22064 314.7192q-2.78125 0 -5.25 -0.515625q-2.46875 -0.515625 -4.21875 -1.78125q-1.296875 -0.96875 -1.96875 -2.421875q-0.671875 -1.46875 -0.671875 -3.0q0 -1.921875 1.125 -3.625q1.125 -1.71875 3.546875 -2.328125q0.34375 -0.046875 0.640625 -0.078125q0.296875 -0.03125 0.546875 -0.03125q1.359375 0 2.453125 0.640625q1.109375 0.625 2.015625 2.40625q-0.90625 0.65625 -1.171875 0.921875q-0.25 0.265625 -0.296875 0.4375q-0.71875 1.171875 -0.71875 2.1875q0 1.28125 1.046875 2.140625q1.0625 0.859375 2.96875 0.859375q1.78125 0 3.375 -0.890625q1.609375 -0.90625 2.578125 -2.40625q0.984375 -1.515625 0.984375 -3.484375q0 -1.484375 -0.71875 -3.203125q-0.609375 -1.46875 -1.75 -2.671875q-1.125 -1.203125 -2.1875 -2.328125q-1.4375 -1.5625 -2.8125 -3.078125q-1.359375 -1.53125 -2.28125 -3.453125q-0.90625 -1.921875 -0.90625 -4.359375q0 -2.3125 0.96875 -4.515625q0.984375 -2.203125 2.828125 -3.734375q2.0625 -1.765625 4.65625 -2.453125q2.59375 -0.703125 5.34375 -0.703125q3.484375 0 5.640625 0.953125q2.15625 0.9375 3.15625 2.5q1.0 1.546875 1.0 3.3125q0 1.640625 -0.71875 3.15625q-0.71875 1.5 -2.0 2.546875q-1.28125 1.046875 -2.8125 1.3125q-0.296875 0.0625 -0.578125 0.0625q-0.28125 0 -0.546875 0q-1.484375 0 -2.765625 -0.765625q-1.265625 -0.78125 -1.265625 -2.6875q0 -0.21875 0.03125 -0.484375q0.03125 -0.265625 0.28125 -1.421875q1.515625 0 2.234375 -0.5q0.734375 -0.5 0.921875 -1.015625q0.203125 -0.515625 0.203125 -0.890625q0 -0.828125 -0.921875 -1.40625q-0.90625 -0.578125 -2.34375 -0.578125q-1.796875 0 -3.171875 0.75q-1.375 0.734375 -2.125 1.890625q-0.734375 1.15625 -0.734375 2.484375q0 1.328125 0.828125 2.578125q0.78125 1.140625 2.015625 2.40625q1.234375 1.265625 2.578125 2.46875q1.34375 1.1875 2.3125 2.21875q2.328125 2.28125 3.375 4.703125q1.046875 2.40625 1.046875 4.765625q0 2.734375 -1.265625 5.125q-1.265625 2.375 -3.453125 4.15625q-2.1875 1.78125 -5.03125 2.796875q-2.84375 1.03125 -6.015625 1.03125zm20.249939 -0.75q-2.125 0 -3.28125 -1.71875q-0.484375 -0.78125 -0.671875 -1.734375q-0.1875 -0.953125 -0.1875 -1.921875q0 -0.90625 0.109375 -1.84375q0.125 -0.9375 0.28125 -1.8125q0.28125 -1.453125 0.625 -2.640625q0.359375 -1.1875 1.4375 -1.96875l0.34375 0.0625q0.546875 1.328125 -0.109375 2.28125q-0.65625 0.9375 -0.90625 1.34375q-0.703125 1.109375 -1.53125 1.109375q-1.3125 0 -1.3125 -1.59375q0 -1.328125 0.75 -2.84375q0.4375 -0.875 1.1875 -2.234375q0.75 -1.359375 1.53125 -2.921875q0.78125 -1.5625 0.765625 -1.5l-1.953125 0q-1.84375 0 -1.390625 -1.25q0.453125 -1.265625 1.0 -1.9375q0.546875 -0.6875 1.234375 -0.6875l3.328125 0q0.296875 -0.734375 1.09375 -2.375q0.8125 -1.65625 1.875 -3.171875q1.0625 -1.53125 2.453125 -2.59375q1.390625 -1.078125 3.09375 -1.078125q0.59375 0 1.390625 0q0.796875 0 1.171875 1.046875q-0.328125 1.546875 -1.734375 3.625q-1.390625 2.078125 -2.453125 4.546875l3.703125 0q2.234375 0 1.359375 1.296875q-0.859375 1.296875 -1.453125 1.9375q-0.59375 0.640625 -1.453125 0.640625l-3.828125 0q-0.421875 1.0625 -1.234375 3.125q-0.8125 2.0625 -1.46875 4.015625q-0.65625 1.953125 -0.953125 3.546875q-0.203125 0.90625 -0.203125 1.640625q0 0.921875 0.171875 0.921875q0.5 0 1.453125 -0.703125q0.96875 -0.703125 2.046875 -2.0625q1.015625 -1.34375 1.96875 -2.90625q0.96875 -1.5625 1.65625 -2.875q0.53125 -0.953125 1.359375 -0.953125q1.421875 0 1.421875 1.96875q0 0.546875 -0.171875 1.265625q-0.15625 0.703125 -0.5625 1.375q-0.765625 1.3125 -1.796875 2.84375q-1.03125 1.53125 -2.109375 3.0625q-0.8125 1.03125 -2.078125 2.328125q-1.25 1.28125 -2.8125 2.3125q-1.546875 1.03125 -3.15625 1.03125zm15.044312 0.109375q-2.859375 0 -5.0 -1.84375q-2.140625 -1.859375 -2.140625 -5.765625q0 -2.671875 0.953125 -5.5625q0.96875 -2.90625 2.765625 -5.40625q1.8125 -2.5 4.4375 -4.125q2.625 -1.640625 5.921875 -1.640625q2.796875 0 4.4375 1.125q1.640625 1.125 2.328125 2.9375q0.6875 1.796875 0.6875 3.765625q0 1.453125 -0.328125 2.921875q-0.3125 1.453125 -0.625 2.25q0.140625 0.171875 1.015625 0.171875q1.078125 0 2.046875 -0.84375q0.609375 -0.546875 1.171875 -1.4375q0.578125 -0.90625 1.03125 -1.71875q0.453125 -0.90625 1.34375 -0.90625q1.375 0 1.375 1.859375q0 0.578125 -0.171875 1.390625q-0.15625 0.796875 -0.671875 1.578125q-0.890625 1.53125 -1.890625 2.375q-0.984375 0.84375 -2.234375 1.328125q-0.984375 0.40625 -2.109375 0.40625q-2.03125 0 -2.671875 -0.875q0.234375 0.203125 -0.4375 1.21875q-1.640625 2.765625 -4.328125 4.78125q-2.6875 2.015625 -6.90625 2.015625zm2.03125 -4.234375q0.859375 0 1.796875 -0.671875q0.9375 -0.6875 1.8125 -1.8125q0.890625 -1.125 1.578125 -2.40625q0.703125 -1.28125 0.796875 -1.5q-1.546875 -1.328125 -1.546875 -4.1875q0 -2.0 1.1875 -3.1875q1.203125 -1.203125 1.96875 -1.125q0 0.328125 -0.328125 -0.109375q-0.3125 -0.4375 -1.078125 -0.4375q-0.890625 0 -1.78125 0.609375q-0.875 0.59375 -1.734375 1.65625q-0.859375 1.046875 -1.546875 2.203125q-0.6875 1.140625 -1.15625 2.0625q-0.640625 1.296875 -1.1875 3.15625q-0.546875 1.84375 -0.546875 3.390625q0 1.171875 0.359375 1.765625q0.375 0.59375 1.40625 0.59375zm24.631775 4.1875q-2.375 0 -3.453125 -2.0625q-0.6875 -1.53125 -0.6875 -3.53125q0 -2.109375 0.609375 -4.609375q0.609375 -2.5 1.65625 -5.078125q0.375 -0.9375 1.0 -2.359375q0.640625 -1.4375 2.484375 -2.234375q-0.171875 1.59375 -1.375 2.078125q-1.1875 0.46875 -2.359375 0.46875q-0.984375 0 -0.96875 -0.609375q0.3125 0.640625 -0.671875 2.578125q-0.96875 1.921875 -2.59375 4.609375q-1.28125 1.984375 -1.890625 0.65625q-0.59375 -1.34375 -0.59375 -2.109375q0 -0.546875 0.140625 -1.15625q0.140625 -0.625 0.421875 -1.171875q0.53125 -1.0 1.046875 -2.09375q0.53125 -1.09375 0.921875 -1.875q0.40625 -0.796875 1.203125 -0.484375q-1.4375 0.21875 -2.078125 -0.9375q-0.640625 -1.171875 -0.640625 -2.3125q0 -1.140625 0.5625 -2.109375q0.5625 -0.984375 1.75 -1.53125q0.6875 -0.234375 1.3125 -0.234375q1.640625 0 3.125 1.515625q-0.171875 0.71875 -0.1875 0.90625q-0.015625 0.171875 -0.015625 0.390625q0 1.03125 0.890625 1.5625q0.890625 0.53125 1.578125 0.453125q0.546875 -0.796875 1.71875 -1.765625q1.171875 -0.984375 2.703125 -0.984375q0.609375 0 1.65625 0.0625q1.0625 0.046875 6.15625 -0.609375q-4.09375 2.71875 -4.4375 3.25q-0.34375 0.515625 -0.71875 1.203125q-0.359375 0.6875 -0.578125 1.046875q-1.40625 2.71875 -2.609375 5.40625q-1.203125 2.6875 -1.8125 5.09375q-0.109375 0.453125 -0.171875 0.796875q-0.0625 0.328125 -0.0625 0.640625q-0.046875 0.546875 -0.046875 0.5q0.375 0 1.453125 -0.84375q1.109375 -0.90625 2.0 -2.03125q1.015625 -1.34375 1.953125 -2.90625q0.9375 -1.5625 1.625 -2.890625q0.625 -0.984375 1.34375 -0.984375q1.4375 0 1.4375 2.0625q0 0.484375 -0.140625 1.15625q-0.140625 0.671875 -0.484375 1.3125q-0.828125 1.359375 -1.859375 2.96875q-1.015625 1.59375 -2.09375 3.109375q-0.765625 1.046875 -2.09375 2.34375q-1.328125 1.296875 -2.921875 2.328125q-1.59375 1.015625 -3.203125 1.015625zm22.005554 -1.25q-2.703125 1.40625 -5.6875 1.40625q-2.59375 0 -4.890625 -1.296875q-2.28125 -1.3125 -3.09375 -4.1875q-0.375 -1.28125 -0.375 -2.65625q0 -2.203125 0.765625 -4.515625q0.765625 -2.328125 2.015625 -4.265625q1.9375 -3.0 4.9375 -5.015625q3.015625 -2.03125 6.71875 -2.03125q2.953125 0 4.671875 1.59375q1.71875 1.578125 1.71875 3.78125q0 2.4375 -1.59375 4.234375q-1.59375 1.78125 -4.046875 2.671875q-1.171875 0.40625 -2.46875 0.609375q-1.296875 0.203125 -2.4375 0.203125q-2.453125 0 -2.765625 -0.15625q-0.5 1.28125 -0.5 3.265625q0 1.609375 0.625 2.484375q0.640625 0.875 2.0625 0.875q1.359375 0 2.796875 -0.796875q1.453125 -0.8125 2.765625 -2.0625q1.328125 -1.25 2.265625 -2.4375q0.71875 -0.859375 1.21875 -1.609375q0.5 -0.765625 1.078125 -1.78125q0.578125 -1.03125 1.375 -2.5625q0.546875 -0.953125 1.34375 -0.953125q1.4375 0 1.4375 1.953125q0 0.625 -0.171875 1.328125q-0.171875 0.6875 -0.5625 1.390625q-0.765625 1.375 -1.828125 2.984375q-1.0625 1.609375 -2.140625 3.078125q-1.046875 1.375 -2.375 2.515625q-1.3125 1.140625 -2.859375 1.953125zm-4.859375 -13.34375q0.15625 0.09375 0.328125 0.125q0.171875 0.03125 0.390625 0.03125q0.8125 0 1.71875 -0.4375q0.921875 -0.4375 1.59375 -0.90625q1.078125 -0.75 1.78125 -1.703125q0.703125 -0.96875 0.78125 -2.171875q0.03125 -0.21875 -0.03125 -0.28125q-0.046875 -0.0625 -0.34375 -0.0625q-0.296875 0 -0.8125 0.125q-0.640625 0.171875 -1.375 0.671875q-0.734375 0.5 -1.46875 1.21875q-0.234375 0.234375 -0.859375 0.96875q-0.625 0.71875 -1.109375 1.484375q-0.46875 0.765625 -0.46875 1.140625q-0.3125 0.0625 -0.125 -0.203125z" fill-rule="nonzero"/></g></svg>